<svg preserveAspectRatio="none" overflow="visible" style="display: block;" width="20" height="19.7753" viewBox="0 0 20 19.7753" fill="none" xmlns="http://www.w3.org/2000/svg">
<path id="Progress / Indeterminate" d="M20 9.7753C20 11.6628 19.4658 13.5117 18.4592 15.1083C17.4527 16.705 16.0148 17.9842 14.3118 18.798C12.6088 19.6118 10.7102 19.9271 8.83561 19.7073C6.96099 19.4875 5.18685 18.7417 3.71826 17.556C2.24968 16.3704 1.14664 14.7933 0.536641 13.0071C-0.0733559 11.221 -0.165396 9.29864 0.271162 7.46236C0.707719 5.62609 1.65505 3.95085 3.00363 2.63031C4.35222 1.30978 6.047 0.397868 7.89204 0L8.35579 2.15057C6.91666 2.4609 5.59473 3.17219 4.54283 4.20221C3.49094 5.23223 2.75202 6.53891 2.41151 7.97121C2.07099 9.40351 2.14278 10.9029 2.61858 12.2961C3.09438 13.6894 3.95475 14.9195 5.10025 15.8443C6.24574 16.7691 7.62957 17.3508 9.09178 17.5222C10.554 17.6937 12.0348 17.4478 13.3632 16.813C14.6915 16.1782 15.8131 15.1804 16.5982 13.9351C17.3833 12.6897 17.8 11.2475 17.8 9.7753H20Z" fill="#35E783"/>
</svg>
